<?xml version="1.0" standalone="no"?>
<!DOCTYPE svg PUBLIC "-//W3C//DTD SVG 20010904//EN"
 "http://www.w3.org/TR/2001/REC-SVG-20010904/DTD/svg10.dtd">
<svg version="1.0" xmlns="http://www.w3.org/2000/svg"
 width="77.000000pt" height="77.000000pt" viewBox="0 0 77.000000 77.000000"
 preserveAspectRatio="xMidYMid meet">
<metadata>
Created by potrace 1.11, written by Peter Selinger 2001-2013
</metadata>
<g transform="translate(0.000000,77.000000) scale(0.100000,-0.100000)"
fill="#000000" stroke="none">
<path d="M148 557 c-116 -41 -148 -56 -148 -70 0 -10 8 -20 18 -23 9 -3 64
-24 122 -46 58 -23 121 -45 140 -49 l35 -7 -40 -1 c-33 -1 -182 31 -256 54
-18 6 -19 -1 -19 -204 l0 -211 385 0 385 0 0 228 0 229 -69 27 c-72 30 -115
29 -104 -1 5 -13 1 -15 -20 -11 -15 3 -27 2 -27 -3 0 -4 -8 -15 -17 -25 -16
-15 -16 -17 3 -31 11 -8 34 -13 57 -11 20 2 37 0 37 -4 0 -5 -21 -8 -46 -8
-44 0 -46 -1 -40 -26 6 -23 5 -24 -15 -14 -16 9 -19 18 -15 36 5 17 2 24 -9
24 -8 0 -15 7 -15 15 0 8 -7 15 -15 15 -19 0 -12 39 17 89 10 18 17 35 16 37
-2 1 -25 12 -52 23 -77 34 -138 27 -308 -32z m519 -186 c-3 -13 1 -21 12 -23
12 -2 16 -15 16 -48 1 -25 4 -63 8 -85 6 -28 5 -35 -2 -24 -5 8 -15 44 -20 78
-6 35 -15 69 -21 76 -6 7 -8 20 -4 29 9 23 17 20 11 -3z m-162 -68 c-4 -27
-16 -75 -26 -107 -11 -32 -22 -73 -23 -91 -2 -17 -8 -40 -14 -51 -10 -17 -11
-15 -12 16 0 19 7 60 15 90 8 30 20 82 26 115 9 51 21 74 38 75 2 0 0 -21 -4
-47z m-208 -10 c18 -13 48 -30 65 -38 l33 -14 -34 -1 c-39 0 -101 28 -146 66
l-30 25 40 -7 c22 -3 55 -17 72 -31z"/>
</g>
</svg>
