<?xml version="1.0" standalone="no"?>
<!DOCTYPE svg PUBLIC "-//W3C//DTD SVG 20010904//EN"
 "http://www.w3.org/TR/2001/REC-SVG-20010904/DTD/svg10.dtd">
<svg version="1.0" xmlns="http://www.w3.org/2000/svg"
 width="310.000000pt" height="310.000000pt" viewBox="0 0 310.000000 310.000000"
 preserveAspectRatio="xMidYMid meet">
<metadata>
Created by potrace 1.11, written by Peter Selinger 2001-2013
</metadata>
<g transform="translate(0.000000,310.000000) scale(0.100000,-0.100000)"
fill="#000000" stroke="none">
<path d="M855 3091 c-3 -5 -21 -8 -40 -7 -19 2 -33 0 -30 -3 2 -4 -23 -13 -55
-20 -33 -8 -57 -17 -54 -22 3 -5 -2 -6 -10 -3 -9 3 -16 1 -16 -6 0 -6 -4 -9
-9 -5 -5 3 -12 1 -16 -5 -4 -6 -11 -8 -16 -5 -5 4 -9 -1 -9 -9 0 -9 -3 -15 -7
-15 -19 3 -32 -2 -56 -23 -14 -13 -46 -41 -71 -63 -25 -22 -45 -46 -46 -52 0
-7 -5 -13 -11 -13 -5 0 -7 -4 -4 -10 3 -5 1 -10 -4 -10 -6 0 -11 -6 -11 -14 0
-8 -6 -21 -13 -28 -7 -7 -12 -20 -12 -28 1 -8 -5 -24 -12 -35 -16 -25 -17 -38
0 -29 8 5 9 4 2 -4 -5 -5 -26 -13 -45 -16 -83 -14 -100 -19 -100 -29 0 -6 -3
-7 -7 -4 -3 4 -17 0 -30 -8 -13 -9 -23 -13 -23 -10 0 14 -98 -95 -111 -122 -7
-18 -18 -33 -24 -33 -5 0 -3 -5 5 -10 12 -7 12 -10 1 -10 -7 0 -11 -6 -7 -15
3 -8 1 -15 -5 -15 -6 0 -5 -8 2 -21 8 -15 8 -19 0 -15 -12 8 -11 -21 2 -41 5
-8 3 -13 -5 -13 -8 0 -6 -5 5 -11 9 -6 15 -14 12 -20 -7 -11 24 -79 36 -79 5
0 9 -7 9 -16 0 -8 5 -12 10 -9 6 3 10 1 10 -5 0 -13 30 -46 30 -33 0 4 4 3 8
-3 12 -18 102 -65 113 -59 5 4 9 2 9 -2 0 -5 10 -9 23 -10 57 -2 73 -8 74 -25
1 -10 -2 -16 -8 -13 -5 4 -5 -4 1 -19 11 -30 3 -37 -48 -41 -20 -2 -38 -4 -39
-6 -2 -1 -7 -2 -12 -3 -5 0 -13 -4 -17 -8 -4 -5 -16 -8 -26 -8 -10 0 -18 -5
-18 -11 0 -5 -5 -7 -10 -4 -6 3 -13 -1 -16 -9 -3 -9 -10 -13 -15 -10 -5 3 -9
0 -9 -5 0 -6 -3 -10 -8 -8 -4 1 -8 -1 -10 -5 -1 -4 -18 -23 -37 -43 -20 -19
-33 -35 -29 -35 3 0 2 -6 -4 -13 -18 -22 -40 -97 -30 -103 5 -4 5 -11 -1 -18
-7 -9 -7 -16 1 -24 9 -9 9 -12 -1 -12 -9 0 -10 -4 -4 -12 5 -7 9 -20 8 -28 0
-8 5 -21 12 -28 7 -8 11 -18 8 -23 -4 -5 -1 -9 4 -9 6 0 10 -6 8 -12 -1 -7 4
-12 11 -11 6 2 12 -3 12 -10 0 -19 80 -97 80 -79 0 4 7 -2 16 -13 8 -11 17
-19 19 -17 12 6 36 1 31 -6 -2 -4 12 -9 32 -10 20 -2 43 -8 51 -15 8 -7 12 -7
8 -1 -3 6 0 11 8 11 8 0 12 -4 9 -9 -3 -4 1 -8 9 -8 14 0 16 -41 2 -73 -6 -15
-10 -16 -16 -5 -5 7 -9 8 -9 2 0 -6 -12 -11 -27 -12 -16 0 -41 -6 -58 -13 -16
-7 -33 -12 -37 -11 -5 1 -8 -3 -8 -9 0 -5 -4 -7 -10 -4 -5 3 -10 1 -10 -4 0
-6 -5 -11 -11 -11 -7 0 -20 -10 -30 -22 -11 -11 -19 -18 -19 -15 0 4 -8 -1
-18 -11 -11 -9 -17 -20 -15 -24 2 -4 -5 -11 -14 -17 -10 -6 -14 -11 -9 -11 5
0 3 -7 -4 -15 -6 -8 -8 -20 -4 -26 4 -8 3 -9 -4 -5 -8 5 -12 -1 -12 -14 0 -12
-4 -19 -8 -16 -5 3 -9 -1 -9 -9 0 -8 5 -11 11 -8 6 3 5 0 -1 -8 -7 -7 -13 -17
-13 -22 0 -4 6 -5 13 -1 9 6 9 5 0 -7 -10 -12 -10 -18 0 -29 10 -10 9 -11 -1
-5 -11 6 -12 3 -4 -11 5 -11 7 -25 5 -31 -3 -7 0 -13 7 -13 6 0 9 -4 5 -9 -3
-5 2 -16 10 -24 8 -9 15 -23 15 -31 0 -9 5 -16 10 -16 6 0 10 -6 10 -14 0 -8
9 -18 20 -21 11 -3 20 -13 20 -22 0 -8 5 -13 12 -11 7 3 23 -7 36 -21 13 -14
21 -21 18 -14 -4 7 1 9 14 6 11 -3 20 -9 20 -14 0 -5 8 -9 18 -9 10 0 24 -6
31 -12 11 -11 12 -10 6 2 -8 13 -7 13 8 1 9 -7 17 -11 17 -8 0 3 12 2 27 -2
21 -6 27 -13 28 -39 1 -18 -2 -32 -7 -32 -5 0 -6 -5 -3 -10 4 -6 3 -10 -2 -9
-4 1 -10 1 -13 0 -5 -2 -60 -10 -87 -13 -7 -1 -13 -5 -13 -10 0 -4 -7 -8 -16
-8 -9 0 -28 -9 -44 -20 -15 -11 -30 -17 -34 -13 -3 3 -6 -1 -6 -11 0 -9 -3
-15 -7 -13 -10 4 -53 -40 -45 -47 3 -3 0 -6 -6 -6 -7 0 -12 -7 -12 -15 0 -8
-5 -15 -11 -15 -6 0 -9 -7 -5 -15 3 -8 1 -15 -4 -15 -6 0 -10 -9 -10 -20 0
-11 -4 -20 -10 -20 -5 0 -10 -5 -10 -11 0 -5 5 -7 10 -4 6 3 10 1 10 -4 0 -6
-4 -11 -8 -11 -13 0 -7 -56 7 -73 7 -9 8 -18 2 -21 -10 -7 12 -59 37 -88 8
-10 12 -18 8 -18 -5 0 11 -16 34 -35 23 -19 47 -32 53 -28 7 3 9 3 5 -2 -9
-10 21 -34 44 -35 9 0 19 -6 21 -12 4 -10 6 -10 6 0 1 6 6 12 12 12 5 0 8 -4
4 -9 -8 -14 54 -24 122 -18 58 4 74 8 104 21 28 12 73 14 87 4 6 -6 12 -7 12
-2 0 5 5 2 10 -6 8 -13 128 -15 965 -17 625 -2 955 1 955 7 0 6 3 9 8 8 4 -1
21 5 37 12 17 7 33 14 37 14 15 2 98 82 98 94 0 7 5 10 10 7 6 -3 10 1 10 9 0
21 56 80 69 72 6 -4 11 0 11 8 0 9 3 15 8 14 11 -4 52 35 52 50 0 7 4 11 8 8
11 -6 65 92 57 104 -3 6 -2 10 2 10 10 0 14 24 16 91 1 32 8 51 24 67 13 13
23 20 23 16 0 -4 12 6 27 22 15 16 26 33 25 37 -1 4 5 10 13 13 8 4 15 12 15
20 0 8 5 14 11 14 5 0 7 4 4 10 -3 5 -2 10 4 10 6 0 8 7 5 15 -4 8 -1 15 4 15
6 0 9 9 7 20 -2 11 0 18 5 15 6 -4 10 365 10 969 0 674 -3 976 -11 976 -5 0
-7 5 -4 10 4 6 1 17 -5 25 -6 8 -9 19 -6 24 4 5 2 12 -4 16 -6 4 -8 11 -5 16
4 5 1 9 -4 9 -6 0 -11 9 -11 20 0 11 -5 20 -11 20 -6 0 -8 7 -5 16 3 8 2 12
-3 9 -5 -3 -12 4 -16 15 -3 11 -10 20 -15 20 -5 0 -12 9 -15 21 -4 12 -12 18
-21 15 -7 -3 -13 -1 -11 3 3 12 -54 61 -70 61 -7 0 -13 5 -13 10 0 6 -9 10
-20 10 -11 0 -20 5 -20 12 0 6 -3 9 -6 5 -4 -3 -19 0 -35 9 -16 8 -29 12 -29
8 0 -4 -8 0 -17 7 -9 8 -14 9 -10 3 3 -6 0 -11 -8 -11 -8 0 -12 4 -9 9 3 4
-413 8 -925 8 -537 0 -932 -4 -936 -9z m-511 -695 c-1 -50 -3 -98 -5 -106 -2
-8 1 -14 7 -13 9 2 9 -4 1 -22 -7 -13 -15 -19 -18 -13 -9 14 -20 12 -30 -4 -5
-8 -9 -9 -9 -2 0 7 -9 14 -20 17 -29 8 -33 9 -57 31 -13 11 -23 24 -23 29 0 4
-7 15 -16 24 -11 11 -12 19 -5 26 15 15 14 30 -1 21 -7 -4 -5 2 5 13 9 11 17
23 17 26 0 13 34 46 42 41 4 -3 11 1 14 10 3 8 14 13 25 11 10 -2 21 1 24 6 4
5 11 7 16 4 5 -4 9 -1 9 5 0 7 4 7 13 -1 8 -8 12 -41 11 -103z m-5 -592 c11
-3 11 -7 1 -19 -8 -9 -8 -15 -2 -15 11 0 9 -46 -2 -57 -3 -3 -1 -13 6 -20 9
-11 9 -16 -1 -23 -7 -4 -9 -10 -5 -13 14 -8 9 -83 -6 -101 -12 -15 -15 -15
-33 1 -11 10 -17 12 -13 6 4 -7 2 -13 -3 -13 -6 0 -11 5 -11 10 0 6 -7 10 -15
10 -8 0 -24 9 -34 19 -11 11 -22 17 -25 15 -3 -2 -4 -1 -1 3 3 3 -2 15 -12 25
-9 10 -13 18 -8 18 4 0 2 6 -4 14 -8 9 -8 16 -2 20 5 4 8 15 6 26 -2 12 0 18
6 15 8 -6 13 8 10 28 -1 5 3 6 8 3 5 -3 12 1 15 10 3 8 10 12 16 9 5 -3 10 -2
10 2 0 17 70 36 99 27z m1 -694 c-6 -12 -7 -20 -1 -20 10 0 8 -46 -3 -57 -3
-3 0 -13 7 -21 9 -12 9 -16 -1 -19 -6 -3 -9 -9 -6 -15 11 -17 11 -109 1 -115
-6 -4 -7 -1 -2 8 7 11 6 12 -6 3 -8 -6 -23 -9 -34 -7 -11 2 -26 5 -32 5 -7 1
-13 6 -13 11 0 6 -3 8 -6 4 -4 -3 -22 10 -40 30 -34 36 -45 60 -21 48 6 -4 3
1 -7 9 -12 10 -15 16 -7 16 8 0 11 6 7 15 -3 8 0 15 7 16 9 0 9 2 0 5 -13 6
23 54 41 54 5 0 17 7 25 14 9 8 32 18 51 21 19 3 36 8 39 11 10 10 11 3 1 -16z
m4 -725 c-1 -27 3 -58 9 -69 6 -13 6 -16 -2 -12 -6 4 -11 3 -11 -3 0 -5 4 -12
10 -16 5 -3 7 -12 4 -19 -3 -8 -1 -17 5 -21 6 -3 11 -17 11 -31 0 -13 5 -24
10 -24 6 0 10 -5 10 -11 0 -5 -4 -8 -9 -4 -5 3 -12 1 -16 -5 -4 -6 -12 -7 -18
-3 -7 4 -22 6 -34 4 -14 -1 -23 3 -23 11 0 10 -3 9 -10 -2 -6 -9 -10 -10 -10
-3 0 6 -9 15 -20 18 -23 7 -70 51 -70 65 0 19 -2 25 -11 37 -7 7 -6 14 1 18 6
3 8 10 5 15 -7 12 59 80 78 80 9 0 19 5 22 10 4 6 11 8 16 5 5 -4 9 -3 9 2 0
4 10 8 23 8 20 0 22 -5 21 -50z"/>
</g>
</svg>
