<?xml version="1.0" encoding="UTF-8"?>
<svg width="18.688mm" height="17.175mm" version="1.1" viewBox="0 0 18.688 17.175" xmlns="http://www.w3.org/2000/svg" xmlns:cc="http://creativecommons.org/ns#" xmlns:dc="http://purl.org/dc/elements/1.1/" xmlns:rdf="http://www.w3.org/1999/02/22-rdf-syntax-ns#">
<metadata>
<rdf:RDF>
<cc:Work rdf:about="">
<dc:format>image/svg+xml</dc:format>
<dc:type rdf:resource="http://purl.org/dc/dcmitype/StillImage"/>
</cc:Work>
</rdf:RDF>
</metadata>
<g transform="translate(-70.922 -111.43)">
<path d="m79.446 112.38s7.8176-2.3386 8.4858 0.86863l1.5368 12.562s-0.73499 0.46772-1.1359-0.33409c-0.4009-0.80181 1.0023-6.5481-1.8041-8.6863-2.8063-2.1382-5.9977 1.1649-6.5144 1.3404-1.0221 0.34708 0.36716-4.1467-0.56828-5.7503z" fill="#708090" stroke="#708090" stroke-width=".26458px"/>
<path d="m76.94 128.32c0.03341-13.898 0.03341-13.764 0.03341-13.764s0.0962-1.5522-0.575-1.7238l-0.76135-0.0468s-5.0781-0.56795-4.5436 3.7752c1.4032 9.0872 1.4032 9.154 1.4032 9.154s0.26727 3.3075 4.4434 2.6059z" fill="#708090" stroke="#708090" stroke-width=".265"/>
<path d="m85.375 124.19 0.13229 3.4975c0.10394 0.98747-0.02835 0.7973-0.02835 0.7973l-5.6555-0.0189v-6.4965s0.61421-2.8112 2.8112-3.0474c0 0 2.7158-0.55038 2.6931 3.449l0.04725 1.819z" fill="#708090" stroke="#708090" stroke-width=".26458px"/>
<circle cx="82.119" cy="120.99" r=".66817" stroke="#e64b07" stroke-width=".26458"/>
<ellipse cx="82.12" cy="121" rx=".42487" ry=".4166" fill="#fff" stroke="#fff" stroke-width=".37397"/>
<circle cx="84.286" cy="121.27" r=".66817" stroke="#fff" stroke-width=".26458"/>
<ellipse cx="84.286" cy="121.25" rx=".42043" ry=".4039" fill="#fff" stroke="#e64b07" stroke-width=".3663"/>
<rect x="80.646" y="120.22" width="4.4979" height="5.5893" ry=".32246" fill="#708090" stroke-opacity="0"/>
<rect x="80.877" y="125.25" width="2.7451" height="1.571" fill="#708090" stroke-opacity="0"/>
</g>
<g transform="translate(-70.922 -111.43)" display="none">
<path d="m81.138 122.73s1.0357 1.3364 3.4077 0.23386c0 0-0.06682 1.5368-1.4366 2.6393-1.3698 1.1025-2.7395-0.96886-1.9711-2.8732z" fill="#fff" stroke-opacity="0"/>
</g>
</svg>
