<?xml version="1.0" encoding="UTF-8" standalone="no"?>
<svg
   xmlns:dc="http://purl.org/dc/elements/1.1/"
   xmlns:cc="http://creativecommons.org/ns#"
   xmlns:rdf="http://www.w3.org/1999/02/22-rdf-syntax-ns#"
   xmlns:svg="http://www.w3.org/2000/svg"
   xmlns="http://www.w3.org/2000/svg"
   xmlns:sodipodi="http://sodipodi.sourceforge.net/DTD/sodipodi-0.dtd"
   xmlns:inkscape="http://www.inkscape.org/namespaces/inkscape"
   width="3.4351847mm"
   height="3.4504135mm"
   version="1.1"
   viewBox="0 0 3.4351848 3.4504136"
   id="svg114"
   sodipodi:docname="humanstxt.svg"
   inkscape:version="0.92.4 (5da689c313, 2019-01-14)">
  <defs
     id="defs118" />
  <sodipodi:namedview
     pagecolor="#ffffff"
     bordercolor="#666666"
     borderopacity="1"
     objecttolerance="10"
     gridtolerance="10"
     guidetolerance="10"
     inkscape:pageopacity="0"
     inkscape:pageshadow="2"
     inkscape:window-width="806"
     inkscape:window-height="480"
     id="namedview116"
     showgrid="false"
     inkscape:zoom="10.283069"
     inkscape:cx="13.06398"
     inkscape:cy="6.9946323"
     inkscape:window-x="453"
     inkscape:window-y="162"
     inkscape:window-maximized="0"
     inkscape:current-layer="svg114" />
  <metadata
     id="metadata88">
    <rdf:RDF>
      <cc:Work
         rdf:about="">
        <dc:format>image/svg+xml</dc:format>
        <dc:type
           rdf:resource="http://purl.org/dc/dcmitype/StillImage" />
      </cc:Work>
    </rdf:RDF>
  </metadata>
  <g
     transform="matrix(0.18381563,0,0,0.20053234,-13.036543,-22.344179)"
     id="g108">
    <path
       d="m 79.446,112.38 c 0,0 7.8176,-2.3386 8.4858,0.86863 l 1.5368,12.562 c 0,0 -0.73499,0.46772 -1.1359,-0.33409 -0.4009,-0.80181 1.0023,-6.5481 -1.8041,-8.6863 -2.8063,-2.1382 -5.9977,1.1649 -6.5144,1.3404 -1.0221,0.34708 0.36716,-4.1467 -0.56828,-5.7503 z"
       id="path90"
       inkscape:connector-curvature="0"
       style="fill:#708090;stroke:#708090;stroke-width:0.26458001px" />
    <path
       d="m 76.94,128.32 c 0.03341,-13.898 0.03341,-13.764 0.03341,-13.764 0,0 0.0962,-1.5522 -0.575,-1.7238 l -0.76135,-0.0468 c 0,0 -5.0781,-0.56795 -4.5436,3.7752 1.4032,9.0872 1.4032,9.154 1.4032,9.154 0,0 0.26727,3.3075 4.4434,2.6059 z"
       id="path92"
       inkscape:connector-curvature="0"
       style="fill:#708090;stroke:#708090;stroke-width:0.26499999" />
    <path
       d="m 85.375,124.19 0.13229,3.4975 c 0.10394,0.98747 -0.02835,0.7973 -0.02835,0.7973 l -5.6555,-0.0189 v -6.4965 c 0,0 0.61421,-2.8112 2.8112,-3.0474 0,0 2.7158,-0.55038 2.6931,3.449 l 0.04725,1.819 z"
       id="path94"
       inkscape:connector-curvature="0"
       style="fill:#708090;stroke:#708090;stroke-width:0.26458001px" />
    <circle
       cx="82.119003"
       cy="120.99"
       r="0.66816998"
       id="circle96"
       style="stroke:#e64b07;stroke-width:0.26458001" />
    <ellipse
       cx="82.120003"
       cy="121"
       rx="0.42487001"
       ry="0.41659999"
       id="ellipse98"
       style="fill:#ffffff;stroke:#ffffff;stroke-width:0.37397" />
    <circle
       cx="84.286003"
       cy="121.27"
       r="0.66816998"
       id="circle100"
       style="stroke:#ffffff;stroke-width:0.26458001" />
    <ellipse
       cx="84.286003"
       cy="121.25"
       rx="0.42043"
       ry="0.4039"
       id="ellipse102"
       style="fill:#ffffff;stroke:#e64b07;stroke-width:0.36629999" />
    <rect
       x="80.646004"
       y="120.22"
       width="4.4979"
       height="5.5893002"
       ry="0.32246"
       id="rect104"
       style="fill:#708090;stroke-opacity:0" />
    <rect
       x="80.876999"
       y="125.25"
       width="2.7451"
       height="1.571"
       id="rect106"
       style="fill:#708090;stroke-opacity:0" />
  </g>
  <g
     transform="translate(-74.363708,-121.71698)"
     display="none"
     id="g112"
     style="display:none">
    <path
       d="m 81.138,122.73 c 0,0 1.0357,1.3364 3.4077,0.23386 0,0 -0.06682,1.5368 -1.4366,2.6393 -1.3698,1.1025 -2.7395,-0.96886 -1.9711,-2.8732 z"
       id="path110"
       inkscape:connector-curvature="0"
       style="fill:#ffffff;stroke-opacity:0" />
  </g>
</svg>
